solid OpenSCAD_Model
  facet normal -1 0 0
    outer loop
      vertex -15 10 -1
      vertex -15 3 1
      vertex -15 10 1
    endloop
  endfacet
  facet normal -1 0 0
    outer loop
      vertex -15 3 1
      vertex -15 0.799999 3
      vertex -15 3 5.25
    endloop
  endfacet
  facet normal -1 0 0
    outer loop
      vertex -15 3 1
      vertex -15 -0.799999 3
      vertex -15 0.799999 3
    endloop
  endfacet
  facet normal -1 0 0
    outer loop
      vertex -15 -3 5.25
      vertex -15 -0.799999 3
      vertex -15 -3 1
    endloop
  endfacet
  facet normal -1 0 0
    outer loop
      vertex -15 3 1
      vertex -15 -3 1
      vertex -15 -0.799999 3
    endloop
  endfacet
  facet normal -1 0 0
    outer loop
      vertex -15 10 -1
      vertex -15 -3 1
      vertex -15 3 1
    endloop
  endfacet
  facet normal -1 0 0
    outer loop
      vertex -15 -10 -1
      vertex -15 -3 1
      vertex -15 10 -1
    endloop
  endfacet
  facet normal -1 -0 0
    outer loop
      vertex -15 -3 1
      vertex -15 -10 -1
      vertex -15 -10 1
    endloop
  endfacet
  facet normal -1 -0 0
    outer loop
      vertex -15 3 5.25
      vertex -15 0.799999 3
      vertex -15 0.799999 5.25
    endloop
  endfacet
  facet normal -1 0 0
    outer loop
      vertex -15 -0.799999 3
      vertex -15 -3 5.25
      vertex -15 -0.799999 5.25
    endloop
  endfacet
  facet normal -0 0 1
    outer loop
      vertex -15 -3 1
      vertex 15 -10 1
      vertex 15 -3 1
    endloop
  endfacet
  facet normal 0 0 1
    outer loop
      vertex 15 -10 1
      vertex -15 -3 1
      vertex -15 -10 1
    endloop
  endfacet
  facet normal -0 0 1
    outer loop
      vertex -15 10 1
      vertex 15 3 1
      vertex 15 10 1
    endloop
  endfacet
  facet normal 0 0 1
    outer loop
      vertex 15 3 1
      vertex -15 10 1
      vertex -15 3 1
    endloop
  endfacet
  facet normal 1 0 0
    outer loop
      vertex 15 -0.799999 5.25
      vertex 15 -3 5.25
      vertex 15 -0.799999 3
    endloop
  endfacet
  facet normal 1 0 0
    outer loop
      vertex 15 0.799999 3
      vertex 15 3 5.25
      vertex 15 0.799999 5.25
    endloop
  endfacet
  facet normal 1 -0 0
    outer loop
      vertex 15 3 1
      vertex 15 10 -1
      vertex 15 10 1
    endloop
  endfacet
  facet normal 1 0 0
    outer loop
      vertex 15 3 5.25
      vertex 15 0.799999 3
      vertex 15 3 1
    endloop
  endfacet
  facet normal 1 -0 0
    outer loop
      vertex 15 -0.799999 3
      vertex 15 3 1
      vertex 15 0.799999 3
    endloop
  endfacet
  facet normal 1 0 0
    outer loop
      vertex 15 -3 1
      vertex 15 -0.799999 3
      vertex 15 -3 5.25
    endloop
  endfacet
  facet normal 1 0 0
    outer loop
      vertex 15 -3 1
      vertex 15 3 1
      vertex 15 -0.799999 3
    endloop
  endfacet
  facet normal 1 -0 0
    outer loop
      vertex 15 -3 1
      vertex 15 10 -1
      vertex 15 3 1
    endloop
  endfacet
  facet normal 1 0 0
    outer loop
      vertex 15 -10 -1
      vertex 15 -3 1
      vertex 15 -10 1
    endloop
  endfacet
  facet normal 1 0 0
    outer loop
      vertex 15 -3 1
      vertex 15 -10 -1
      vertex 15 10 -1
    endloop
  endfacet
  facet normal 0 0 -1
    outer loop
      vertex -15 -10 -1
      vertex 15 10 -1
      vertex 15 -10 -1
    endloop
  endfacet
  facet normal -0 0 -1
    outer loop
      vertex 15 10 -1
      vertex -15 -10 -1
      vertex -15 10 -1
    endloop
  endfacet
  facet normal 0 -1 0
    outer loop
      vertex -15 -10 -1
      vertex 15 -10 1
      vertex -15 -10 1
    endloop
  endfacet
  facet normal 0 -1 -0
    outer loop
      vertex 15 -10 1
      vertex -15 -10 -1
      vertex 15 -10 -1
    endloop
  endfacet
  facet normal 0 1 -0
    outer loop
      vertex 15 10 -1
      vertex -15 10 1
      vertex 15 10 1
    endloop
  endfacet
  facet normal 0 1 0
    outer loop
      vertex -15 10 1
      vertex 15 10 -1
      vertex -15 10 -1
    endloop
  endfacet
  facet normal -0 0 1
    outer loop
      vertex -15 -0.799999 5.25
      vertex 15 -3 5.25
      vertex 15 -0.799999 5.25
    endloop
  endfacet
  facet normal 0 0 1
    outer loop
      vertex 15 -3 5.25
      vertex -15 -0.799999 5.25
      vertex -15 -3 5.25
    endloop
  endfacet
  facet normal -0 0 1
    outer loop
      vertex -15 3 5.25
      vertex 15 0.799999 5.25
      vertex 15 3 5.25
    endloop
  endfacet
  facet normal 0 0 1
    outer loop
      vertex 15 0.799999 5.25
      vertex -15 3 5.25
      vertex -15 0.799999 5.25
    endloop
  endfacet
  facet normal 0 1 -0
    outer loop
      vertex 15 3 1
      vertex -15 3 5.25
      vertex 15 3 5.25
    endloop
  endfacet
  facet normal 0 1 0
    outer loop
      vertex -15 3 5.25
      vertex 15 3 1
      vertex -15 3 1
    endloop
  endfacet
  facet normal 0 -1 0
    outer loop
      vertex -15 -3 1
      vertex 15 -3 5.25
      vertex -15 -3 5.25
    endloop
  endfacet
  facet normal 0 -1 -0
    outer loop
      vertex 15 -3 5.25
      vertex -15 -3 1
      vertex 15 -3 1
    endloop
  endfacet
  facet normal 0 -1 0
    outer loop
      vertex -15 0.799999 3
      vertex 15 0.799999 5.25
      vertex -15 0.799999 5.25
    endloop
  endfacet
  facet normal 0 -1 -0
    outer loop
      vertex 15 0.799999 5.25
      vertex -15 0.799999 3
      vertex 15 0.799999 3
    endloop
  endfacet
  facet normal -0 0 1
    outer loop
      vertex -15 0.799999 3
      vertex 15 -0.799999 3
      vertex 15 0.799999 3
    endloop
  endfacet
  facet normal 0 0 1
    outer loop
      vertex 15 -0.799999 3
      vertex -15 0.799999 3
      vertex -15 -0.799999 3
    endloop
  endfacet
  facet normal 0 1 -0
    outer loop
      vertex 15 -0.799999 3
      vertex -15 -0.799999 5.25
      vertex 15 -0.799999 5.25
    endloop
  endfacet
  facet normal 0 1 0
    outer loop
      vertex -15 -0.799999 5.25
      vertex 15 -0.799999 3
      vertex -15 -0.799999 3
    endloop
  endfacet
endsolid OpenSCAD_Model
