solid OpenSCAD_Model
  facet normal -1 0 0
    outer loop
      vertex 0 0 1
      vertex 0 40 10
      vertex 0 40 1
    endloop
  endfacet
  facet normal -1 -0 0
    outer loop
      vertex 0 40 10
      vertex 0 0 1
      vertex 0 0 10
    endloop
  endfacet
  facet normal 0 0 1
    outer loop
      vertex 5.5 3 10
      vertex 6.5 40 10
      vertex 5.5 39.5 10
    endloop
  endfacet
  facet normal 0 0 1
    outer loop
      vertex 6.5 40 10
      vertex 1 39.5 10
      vertex 5.5 39.5 10
    endloop
  endfacet
  facet normal 0 0 1
    outer loop
      vertex 1 39.5 10
      vertex 0 40 10
      vertex 1 3 10
    endloop
  endfacet
  facet normal -0 0 1
    outer loop
      vertex 0 40 10
      vertex 1 39.5 10
      vertex 6.5 40 10
    endloop
  endfacet
  facet normal 0 0 1
    outer loop
      vertex 6.5 40 10
      vertex 5.5 3 10
      vertex 6.5 0 10
    endloop
  endfacet
  facet normal -0 0 1
    outer loop
      vertex 1 3 10
      vertex 6.5 0 10
      vertex 5.5 3 10
    endloop
  endfacet
  facet normal 0 0 1
    outer loop
      vertex 1 3 10
      vertex 0 0 10
      vertex 6.5 0 10
    endloop
  endfacet
  facet normal 0 0 1
    outer loop
      vertex 0 0 10
      vertex 1 3 10
      vertex 0 40 10
    endloop
  endfacet
  facet normal 1 -0 0
    outer loop
      vertex 6.5 0 10
      vertex 6.5 40 1
      vertex 6.5 40 10
    endloop
  endfacet
  facet normal 1 0 0
    outer loop
      vertex 6.5 40 1
      vertex 6.5 0 10
      vertex 6.5 0 1
    endloop
  endfacet
  facet normal 0 1 -0
    outer loop
      vertex 7 40 0
      vertex 6.5 40 1
      vertex 7 40 1
    endloop
  endfacet
  facet normal 0 1 0
    outer loop
      vertex 6.5 40 1
      vertex 7 40 0
      vertex 0 40 1
    endloop
  endfacet
  facet normal 0 1 0
    outer loop
      vertex -0.5 40 0
      vertex 0 40 1
      vertex 7 40 0
    endloop
  endfacet
  facet normal 0 1 0
    outer loop
      vertex 0 40 1
      vertex -0.5 40 0
      vertex -0.5 40 1
    endloop
  endfacet
  facet normal 0 1 -0
    outer loop
      vertex 6.5 40 1
      vertex 0 40 10
      vertex 6.5 40 10
    endloop
  endfacet
  facet normal 0 1 0
    outer loop
      vertex 0 40 10
      vertex 6.5 40 1
      vertex 0 40 1
    endloop
  endfacet
  facet normal 0 0 -1
    outer loop
      vertex -0.5 0 0
      vertex 7 40 0
      vertex 7 0 0
    endloop
  endfacet
  facet normal -0 0 -1
    outer loop
      vertex 7 40 0
      vertex -0.5 0 0
      vertex -0.5 40 0
    endloop
  endfacet
  facet normal 0 -1 0
    outer loop
      vertex -0.5 0 0
      vertex 0 0 1
      vertex -0.5 0 1
    endloop
  endfacet
  facet normal 0 -1 -0
    outer loop
      vertex 0 0 1
      vertex -0.5 0 0
      vertex 6.5 0 1
    endloop
  endfacet
  facet normal 0 -1 0
    outer loop
      vertex 7 0 0
      vertex 6.5 0 1
      vertex -0.5 0 0
    endloop
  endfacet
  facet normal 0 -1 0
    outer loop
      vertex 6.5 0 1
      vertex 7 0 0
      vertex 7 0 1
    endloop
  endfacet
  facet normal 0 -1 0
    outer loop
      vertex 0 0 1
      vertex 6.5 0 10
      vertex 0 0 10
    endloop
  endfacet
  facet normal 0 -1 -0
    outer loop
      vertex 6.5 0 10
      vertex 0 0 1
      vertex 6.5 0 1
    endloop
  endfacet
  facet normal -1 0 0
    outer loop
      vertex -0.5 0 0
      vertex -0.5 40 1
      vertex -0.5 40 0
    endloop
  endfacet
  facet normal -1 -0 0
    outer loop
      vertex -0.5 40 1
      vertex -0.5 0 0
      vertex -0.5 0 1
    endloop
  endfacet
  facet normal -0 0 1
    outer loop
      vertex -0.5 40 1
      vertex 0 0 1
      vertex 0 40 1
    endloop
  endfacet
  facet normal 0 0 1
    outer loop
      vertex 0 0 1
      vertex -0.5 40 1
      vertex -0.5 0 1
    endloop
  endfacet
  facet normal -0 0 1
    outer loop
      vertex 6.5 40 1
      vertex 7 0 1
      vertex 7 40 1
    endloop
  endfacet
  facet normal 0 0 1
    outer loop
      vertex 7 0 1
      vertex 6.5 40 1
      vertex 6.5 0 1
    endloop
  endfacet
  facet normal 1 -0 0
    outer loop
      vertex 7 0 1
      vertex 7 40 0
      vertex 7 40 1
    endloop
  endfacet
  facet normal 1 0 0
    outer loop
      vertex 7 40 0
      vertex 7 0 1
      vertex 7 0 0
    endloop
  endfacet
  facet normal 1 -0 0
    outer loop
      vertex 1 3 10
      vertex 1 39.5 1
      vertex 1 39.5 10
    endloop
  endfacet
  facet normal 1 0 0
    outer loop
      vertex 1 39.5 1
      vertex 1 3 10
      vertex 1 3 1
    endloop
  endfacet
  facet normal -1 0 0
    outer loop
      vertex 5.5 3 1
      vertex 5.5 39.5 10
      vertex 5.5 39.5 1
    endloop
  endfacet
  facet normal -1 -0 0
    outer loop
      vertex 5.5 39.5 10
      vertex 5.5 3 1
      vertex 5.5 3 10
    endloop
  endfacet
  facet normal 0 -1 0
    outer loop
      vertex 1 39.5 1
      vertex 5.5 39.5 10
      vertex 1 39.5 10
    endloop
  endfacet
  facet normal 0 -1 -0
    outer loop
      vertex 5.5 39.5 10
      vertex 1 39.5 1
      vertex 5.5 39.5 1
    endloop
  endfacet
  facet normal -0 0 1
    outer loop
      vertex 1 39.5 1
      vertex 5.5 3 1
      vertex 5.5 39.5 1
    endloop
  endfacet
  facet normal 0 0 1
    outer loop
      vertex 5.5 3 1
      vertex 1 39.5 1
      vertex 1 3 1
    endloop
  endfacet
  facet normal 0 1 -0
    outer loop
      vertex 5.5 3 1
      vertex 1 3 10
      vertex 5.5 3 10
    endloop
  endfacet
  facet normal 0 1 0
    outer loop
      vertex 1 3 10
      vertex 5.5 3 1
      vertex 1 3 1
    endloop
  endfacet
endsolid OpenSCAD_Model
