solid OpenSCAD_Model
  facet normal -1 0 0
    outer loop
      vertex 0 0 0
      vertex 0 6.6 14
      vertex 0 6.6 0
    endloop
  endfacet
  facet normal -1 -0 0
    outer loop
      vertex 0 6.6 14
      vertex 0 0 0
      vertex 0 0 14
    endloop
  endfacet
  facet normal 0 0 1
    outer loop
      vertex 13.8 6.6 14
      vertex 13.3 6.1 14
      vertex 13.8 0 14
    endloop
  endfacet
  facet normal 0 0 1
    outer loop
      vertex 13.8 6.6 14
      vertex 0.5 6.1 14
      vertex 13.3 6.1 14
    endloop
  endfacet
  facet normal 0 0 1
    outer loop
      vertex 0.5 6.1 14
      vertex 0 6.6 14
      vertex 0.5 0.5 14
    endloop
  endfacet
  facet normal -0 0 1
    outer loop
      vertex 0 6.6 14
      vertex 0.5 6.1 14
      vertex 13.8 6.6 14
    endloop
  endfacet
  facet normal -0 0 1
    outer loop
      vertex 13.3 0.5 14
      vertex 13.8 0 14
      vertex 13.3 6.1 14
    endloop
  endfacet
  facet normal -0 0 1
    outer loop
      vertex 0.5 0.5 14
      vertex 13.8 0 14
      vertex 13.3 0.5 14
    endloop
  endfacet
  facet normal 0 0 1
    outer loop
      vertex 0.5 0.5 14
      vertex 0 0 14
      vertex 13.8 0 14
    endloop
  endfacet
  facet normal 0 0 1
    outer loop
      vertex 0 0 14
      vertex 0.5 0.5 14
      vertex 0 6.6 14
    endloop
  endfacet
  facet normal 1 -0 0
    outer loop
      vertex 13.8 0 14
      vertex 13.8 6.6 4
      vertex 13.8 6.6 14
    endloop
  endfacet
  facet normal 1 0 0
    outer loop
      vertex 13.8 6.6 4
      vertex 13.8 0 14
      vertex 13.8 0 4
    endloop
  endfacet
  facet normal 0 1 0
    outer loop
      vertex 15.8 6.6 4
      vertex 15.8 6.6 0
      vertex 13.8 6.6 4
    endloop
  endfacet
  facet normal 0 1 -0
    outer loop
      vertex 13.8 6.6 4
      vertex 0 6.6 14
      vertex 13.8 6.6 14
    endloop
  endfacet
  facet normal 0 1 0
    outer loop
      vertex 0 6.6 0
      vertex 13.8 6.6 4
      vertex 15.8 6.6 0
    endloop
  endfacet
  facet normal 0 1 0
    outer loop
      vertex 13.8 6.6 4
      vertex 0 6.6 0
      vertex 0 6.6 14
    endloop
  endfacet
  facet normal 0 0 -1
    outer loop
      vertex 15.8 0 0
      vertex 13.3 0.5 0
      vertex 15.8 6.6 0
    endloop
  endfacet
  facet normal 0 0 -1
    outer loop
      vertex 0 0 0
      vertex 13.3 0.5 0
      vertex 15.8 0 0
    endloop
  endfacet
  facet normal -0 0 -1
    outer loop
      vertex 0.5 0.5 0
      vertex 0 0 0
      vertex 0.5 6.1 0
    endloop
  endfacet
  facet normal -0 0 -1
    outer loop
      vertex 13.3 0.5 0
      vertex 0 0 0
      vertex 0.5 0.5 0
    endloop
  endfacet
  facet normal 0 0 -1
    outer loop
      vertex 13.3 6.1 0
      vertex 15.8 6.6 0
      vertex 13.3 0.5 0
    endloop
  endfacet
  facet normal 0 0 -1
    outer loop
      vertex 0 6.6 0
      vertex 13.3 6.1 0
      vertex 0.5 6.1 0
    endloop
  endfacet
  facet normal 0 0 -1
    outer loop
      vertex 13.3 6.1 0
      vertex 0 6.6 0
      vertex 15.8 6.6 0
    endloop
  endfacet
  facet normal 0 0 -1
    outer loop
      vertex 0 6.6 0
      vertex 0.5 6.1 0
      vertex 0 0 0
    endloop
  endfacet
  facet normal 0 -1 0
    outer loop
      vertex 0 0 14
      vertex 13.8 0 4
      vertex 13.8 0 14
    endloop
  endfacet
  facet normal 0 -1 0
    outer loop
      vertex 0 0 0
      vertex 13.8 0 4
      vertex 0 0 14
    endloop
  endfacet
  facet normal 0 -1 0
    outer loop
      vertex 15.8 0 0
      vertex 13.8 0 4
      vertex 0 0 0
    endloop
  endfacet
  facet normal 0 -1 0
    outer loop
      vertex 13.8 0 4
      vertex 15.8 0 0
      vertex 15.8 0 4
    endloop
  endfacet
  facet normal 1 -0 0
    outer loop
      vertex 0.5 0.5 14
      vertex 0.5 6.1 0
      vertex 0.5 6.1 14
    endloop
  endfacet
  facet normal 1 0 0
    outer loop
      vertex 0.5 6.1 0
      vertex 0.5 0.5 14
      vertex 0.5 0.5 0
    endloop
  endfacet
  facet normal -1 0 0
    outer loop
      vertex 13.3 0.5 0
      vertex 13.3 6.1 14
      vertex 13.3 6.1 0
    endloop
  endfacet
  facet normal -1 -0 0
    outer loop
      vertex 13.3 6.1 14
      vertex 13.3 0.5 0
      vertex 13.3 0.5 14
    endloop
  endfacet
  facet normal 0 -1 0
    outer loop
      vertex 0.5 6.1 0
      vertex 13.3 6.1 14
      vertex 0.5 6.1 14
    endloop
  endfacet
  facet normal 0 -1 -0
    outer loop
      vertex 13.3 6.1 14
      vertex 0.5 6.1 0
      vertex 13.3 6.1 0
    endloop
  endfacet
  facet normal 0 1 -0
    outer loop
      vertex 13.3 0.5 0
      vertex 0.5 0.5 14
      vertex 13.3 0.5 14
    endloop
  endfacet
  facet normal 0 1 0
    outer loop
      vertex 0.5 0.5 14
      vertex 13.3 0.5 0
      vertex 0.5 0.5 0
    endloop
  endfacet
  facet normal -0 0 1
    outer loop
      vertex 13.8 6.6 4
      vertex 15.8 0 4
      vertex 15.8 6.6 4
    endloop
  endfacet
  facet normal 0 0 1
    outer loop
      vertex 15.8 0 4
      vertex 13.8 6.6 4
      vertex 13.8 0 4
    endloop
  endfacet
  facet normal 1 -0 0
    outer loop
      vertex 15.8 0 4
      vertex 15.8 6.6 0
      vertex 15.8 6.6 4
    endloop
  endfacet
  facet normal 1 0 0
    outer loop
      vertex 15.8 6.6 0
      vertex 15.8 0 4
      vertex 15.8 0 0
    endloop
  endfacet
  facet normal -1 0 0
    outer loop
      vertex 0 16.8 0
      vertex 0 23.4 14
      vertex 0 23.4 0
    endloop
  endfacet
  facet normal -1 -0 0
    outer loop
      vertex 0 23.4 14
      vertex 0 16.8 0
      vertex 0 16.8 14
    endloop
  endfacet
  facet normal 0 0 1
    outer loop
      vertex 13.8 23.4 14
      vertex 13.3 22.9 14
      vertex 13.8 16.8 14
    endloop
  endfacet
  facet normal 0 0 1
    outer loop
      vertex 13.8 23.4 14
      vertex 0.5 22.9 14
      vertex 13.3 22.9 14
    endloop
  endfacet
  facet normal 0 0 1
    outer loop
      vertex 0.5 22.9 14
      vertex 0 23.4 14
      vertex 0.5 17.3 14
    endloop
  endfacet
  facet normal -0 0 1
    outer loop
      vertex 0 23.4 14
      vertex 0.5 22.9 14
      vertex 13.8 23.4 14
    endloop
  endfacet
  facet normal -0 0 1
    outer loop
      vertex 13.3 17.3 14
      vertex 13.8 16.8 14
      vertex 13.3 22.9 14
    endloop
  endfacet
  facet normal -0 0 1
    outer loop
      vertex 0.5 17.3 14
      vertex 13.8 16.8 14
      vertex 13.3 17.3 14
    endloop
  endfacet
  facet normal 0 0 1
    outer loop
      vertex 0.5 17.3 14
      vertex 0 16.8 14
      vertex 13.8 16.8 14
    endloop
  endfacet
  facet normal 0 0 1
    outer loop
      vertex 0 16.8 14
      vertex 0.5 17.3 14
      vertex 0 23.4 14
    endloop
  endfacet
  facet normal 1 -0 0
    outer loop
      vertex 13.8 16.8 14
      vertex 13.8 23.4 0
      vertex 13.8 23.4 14
    endloop
  endfacet
  facet normal 1 0 0
    outer loop
      vertex 13.8 23.4 0
      vertex 13.8 16.8 14
      vertex 13.8 16.8 0
    endloop
  endfacet
  facet normal 0 1 -0
    outer loop
      vertex 13.8 23.4 0
      vertex 0 23.4 14
      vertex 13.8 23.4 14
    endloop
  endfacet
  facet normal 0 1 0
    outer loop
      vertex 0 23.4 14
      vertex 13.8 23.4 0
      vertex 0 23.4 0
    endloop
  endfacet
  facet normal 0 0 -1
    outer loop
      vertex 8.9 14.8 0
      vertex 4.9 14.8 0
      vertex 8.9 16.8 0
    endloop
  endfacet
  facet normal 0 0 -1
    outer loop
      vertex 13.8 16.8 0
      vertex 13.3 17.3 0
      vertex 13.8 23.4 0
    endloop
  endfacet
  facet normal 0 0 -1
    outer loop
      vertex 8.9 16.8 0
      vertex 13.3 17.3 0
      vertex 13.8 16.8 0
    endloop
  endfacet
  facet normal 0 0 -1
    outer loop
      vertex 4.9 16.8 0
      vertex 8.9 16.8 0
      vertex 4.9 14.8 0
    endloop
  endfacet
  facet normal 0 0 -1
    outer loop
      vertex 4.9 16.8 0
      vertex 13.3 17.3 0
      vertex 8.9 16.8 0
    endloop
  endfacet
  facet normal 0 0 -1
    outer loop
      vertex 4.9 16.8 0
      vertex 0.5 17.3 0
      vertex 13.3 17.3 0
    endloop
  endfacet
  facet normal -0 0 -1
    outer loop
      vertex 0.5 17.3 0
      vertex 0 16.8 0
      vertex 0.5 22.9 0
    endloop
  endfacet
  facet normal 0 0 -1
    outer loop
      vertex 0 16.8 0
      vertex 0.5 17.3 0
      vertex 4.9 16.8 0
    endloop
  endfacet
  facet normal 0 0 -1
    outer loop
      vertex 13.3 22.9 0
      vertex 13.8 23.4 0
      vertex 13.3 17.3 0
    endloop
  endfacet
  facet normal 0 0 -1
    outer loop
      vertex 0.5 22.9 0
      vertex 13.8 23.4 0
      vertex 13.3 22.9 0
    endloop
  endfacet
  facet normal 0 0 -1
    outer loop
      vertex 0.5 22.9 0
      vertex 0 23.4 0
      vertex 13.8 23.4 0
    endloop
  endfacet
  facet normal 0 0 -1
    outer loop
      vertex 0 23.4 0
      vertex 0.5 22.9 0
      vertex 0 16.8 0
    endloop
  endfacet
  facet normal 0 -1 0
    outer loop
      vertex 0 16.8 14
      vertex 4.9 16.8 4
      vertex 13.8 16.8 14
    endloop
  endfacet
  facet normal 0 -1 0
    outer loop
      vertex 0 16.8 0
      vertex 4.9 16.8 4
      vertex 0 16.8 14
    endloop
  endfacet
  facet normal 0 -1 -0
    outer loop
      vertex 4.9 16.8 4
      vertex 0 16.8 0
      vertex 4.9 16.8 0
    endloop
  endfacet
  facet normal 0 -1 0
    outer loop
      vertex 8.9 16.8 4
      vertex 13.8 16.8 14
      vertex 4.9 16.8 4
    endloop
  endfacet
  facet normal 0 -1 0
    outer loop
      vertex 13.8 16.8 0
      vertex 8.9 16.8 4
      vertex 8.9 16.8 0
    endloop
  endfacet
  facet normal 0 -1 0
    outer loop
      vertex 8.9 16.8 4
      vertex 13.8 16.8 0
      vertex 13.8 16.8 14
    endloop
  endfacet
  facet normal 1 -0 0
    outer loop
      vertex 0.5 17.3 14
      vertex 0.5 22.9 0
      vertex 0.5 22.9 14
    endloop
  endfacet
  facet normal 1 0 0
    outer loop
      vertex 0.5 22.9 0
      vertex 0.5 17.3 14
      vertex 0.5 17.3 0
    endloop
  endfacet
  facet normal -1 0 0
    outer loop
      vertex 13.3 17.3 0
      vertex 13.3 22.9 14
      vertex 13.3 22.9 0
    endloop
  endfacet
  facet normal -1 -0 0
    outer loop
      vertex 13.3 22.9 14
      vertex 13.3 17.3 0
      vertex 13.3 17.3 14
    endloop
  endfacet
  facet normal 0 -1 0
    outer loop
      vertex 0.5 22.9 0
      vertex 13.3 22.9 14
      vertex 0.5 22.9 14
    endloop
  endfacet
  facet normal 0 -1 -0
    outer loop
      vertex 13.3 22.9 14
      vertex 0.5 22.9 0
      vertex 13.3 22.9 0
    endloop
  endfacet
  facet normal 0 1 -0
    outer loop
      vertex 13.3 17.3 0
      vertex 0.5 17.3 14
      vertex 13.3 17.3 14
    endloop
  endfacet
  facet normal 0 1 0
    outer loop
      vertex 0.5 17.3 14
      vertex 13.3 17.3 0
      vertex 0.5 17.3 0
    endloop
  endfacet
  facet normal -1 0 0
    outer loop
      vertex 4.9 14.8 0
      vertex 4.9 16.8 4
      vertex 4.9 16.8 0
    endloop
  endfacet
  facet normal -1 -0 0
    outer loop
      vertex 4.9 16.8 4
      vertex 4.9 14.8 0
      vertex 4.9 14.8 4
    endloop
  endfacet
  facet normal -0 0 1
    outer loop
      vertex 4.9 16.8 4
      vertex 8.9 14.8 4
      vertex 8.9 16.8 4
    endloop
  endfacet
  facet normal 0 0 1
    outer loop
      vertex 8.9 14.8 4
      vertex 4.9 16.8 4
      vertex 4.9 14.8 4
    endloop
  endfacet
  facet normal 1 -0 0
    outer loop
      vertex 8.9 14.8 4
      vertex 8.9 16.8 0
      vertex 8.9 16.8 4
    endloop
  endfacet
  facet normal 1 0 0
    outer loop
      vertex 8.9 16.8 0
      vertex 8.9 14.8 4
      vertex 8.9 14.8 0
    endloop
  endfacet
  facet normal 0 -1 0
    outer loop
      vertex 4.9 14.8 0
      vertex 8.9 14.8 4
      vertex 4.9 14.8 4
    endloop
  endfacet
  facet normal 0 -1 -0
    outer loop
      vertex 8.9 14.8 4
      vertex 4.9 14.8 0
      vertex 8.9 14.8 0
    endloop
  endfacet
endsolid OpenSCAD_Model
