solid OpenSCAD_Model
  facet normal -1 0 0
    outer loop
      vertex 0 0 0
      vertex 0 6.9 14
      vertex 0 6.9 0
    endloop
  endfacet
  facet normal -1 -0 0
    outer loop
      vertex 0 6.9 14
      vertex 0 0 0
      vertex 0 0 14
    endloop
  endfacet
  facet normal 0 0 1
    outer loop
      vertex 13.95 6.9 14
      vertex 13.45 6.4 14
      vertex 13.95 0 14
    endloop
  endfacet
  facet normal 0 0 1
    outer loop
      vertex 13.95 6.9 14
      vertex 0.5 6.4 14
      vertex 13.45 6.4 14
    endloop
  endfacet
  facet normal 0 0 1
    outer loop
      vertex 0.5 6.4 14
      vertex 0 6.9 14
      vertex 0.5 0.5 14
    endloop
  endfacet
  facet normal -0 0 1
    outer loop
      vertex 0 6.9 14
      vertex 0.5 6.4 14
      vertex 13.95 6.9 14
    endloop
  endfacet
  facet normal -0 0 1
    outer loop
      vertex 13.45 0.5 14
      vertex 13.95 0 14
      vertex 13.45 6.4 14
    endloop
  endfacet
  facet normal -0 0 1
    outer loop
      vertex 0.5 0.5 14
      vertex 13.95 0 14
      vertex 13.45 0.5 14
    endloop
  endfacet
  facet normal 0 0 1
    outer loop
      vertex 0.5 0.5 14
      vertex 0 0 14
      vertex 13.95 0 14
    endloop
  endfacet
  facet normal 0 0 1
    outer loop
      vertex 0 0 14
      vertex 0.5 0.5 14
      vertex 0 6.9 14
    endloop
  endfacet
  facet normal 1 -0 0
    outer loop
      vertex 13.95 0 14
      vertex 13.95 6.9 4
      vertex 13.95 6.9 14
    endloop
  endfacet
  facet normal 1 0 0
    outer loop
      vertex 13.95 6.9 4
      vertex 13.95 0 14
      vertex 13.95 0 4
    endloop
  endfacet
  facet normal 0 0 -1
    outer loop
      vertex 15.95 0 0
      vertex 13.45 0.5 0
      vertex 15.95 6.9 0
    endloop
  endfacet
  facet normal 0 0 -1
    outer loop
      vertex 0 0 0
      vertex 13.45 0.5 0
      vertex 15.95 0 0
    endloop
  endfacet
  facet normal -0 0 -1
    outer loop
      vertex 0.5 0.5 0
      vertex 0 0 0
      vertex 0.5 6.4 0
    endloop
  endfacet
  facet normal -0 0 -1
    outer loop
      vertex 13.45 0.5 0
      vertex 0 0 0
      vertex 0.5 0.5 0
    endloop
  endfacet
  facet normal 0 0 -1
    outer loop
      vertex 13.45 6.4 0
      vertex 15.95 6.9 0
      vertex 13.45 0.5 0
    endloop
  endfacet
  facet normal 0 0 -1
    outer loop
      vertex 0 6.9 0
      vertex 13.45 6.4 0
      vertex 0.5 6.4 0
    endloop
  endfacet
  facet normal 0 0 -1
    outer loop
      vertex 13.45 6.4 0
      vertex 0 6.9 0
      vertex 15.95 6.9 0
    endloop
  endfacet
  facet normal 0 0 -1
    outer loop
      vertex 0 6.9 0
      vertex 0.5 6.4 0
      vertex 0 0 0
    endloop
  endfacet
  facet normal 0 -1 0
    outer loop
      vertex 0 0 14
      vertex 13.95 0 4
      vertex 13.95 0 14
    endloop
  endfacet
  facet normal 0 -1 0
    outer loop
      vertex 0 0 0
      vertex 13.95 0 4
      vertex 0 0 14
    endloop
  endfacet
  facet normal 0 -1 0
    outer loop
      vertex 15.95 0 0
      vertex 13.95 0 4
      vertex 0 0 0
    endloop
  endfacet
  facet normal 0 -1 0
    outer loop
      vertex 13.95 0 4
      vertex 15.95 0 0
      vertex 15.95 0 4
    endloop
  endfacet
  facet normal 0 1 0
    outer loop
      vertex 15.95 6.9 4
      vertex 15.95 6.9 0
      vertex 13.95 6.9 4
    endloop
  endfacet
  facet normal 0 1 -0
    outer loop
      vertex 13.95 6.9 4
      vertex 0 6.9 14
      vertex 13.95 6.9 14
    endloop
  endfacet
  facet normal 0 1 0
    outer loop
      vertex 0 6.9 0
      vertex 13.95 6.9 4
      vertex 15.95 6.9 0
    endloop
  endfacet
  facet normal 0 1 0
    outer loop
      vertex 13.95 6.9 4
      vertex 0 6.9 0
      vertex 0 6.9 14
    endloop
  endfacet
  facet normal 1 -0 0
    outer loop
      vertex 0.5 0.5 14
      vertex 0.5 6.4 0
      vertex 0.5 6.4 14
    endloop
  endfacet
  facet normal 1 0 0
    outer loop
      vertex 0.5 6.4 0
      vertex 0.5 0.5 14
      vertex 0.5 0.5 0
    endloop
  endfacet
  facet normal -1 0 0
    outer loop
      vertex 13.45 0.5 0
      vertex 13.45 6.4 14
      vertex 13.45 6.4 0
    endloop
  endfacet
  facet normal -1 -0 0
    outer loop
      vertex 13.45 6.4 14
      vertex 13.45 0.5 0
      vertex 13.45 0.5 14
    endloop
  endfacet
  facet normal 0 -1 0
    outer loop
      vertex 0.5 6.4 0
      vertex 13.45 6.4 14
      vertex 0.5 6.4 14
    endloop
  endfacet
  facet normal 0 -1 -0
    outer loop
      vertex 13.45 6.4 14
      vertex 0.5 6.4 0
      vertex 13.45 6.4 0
    endloop
  endfacet
  facet normal 0 1 -0
    outer loop
      vertex 13.45 0.5 0
      vertex 0.5 0.5 14
      vertex 13.45 0.5 14
    endloop
  endfacet
  facet normal 0 1 0
    outer loop
      vertex 0.5 0.5 14
      vertex 13.45 0.5 0
      vertex 0.5 0.5 0
    endloop
  endfacet
  facet normal -0 0 1
    outer loop
      vertex 13.95 6.9 4
      vertex 15.95 0 4
      vertex 15.95 6.9 4
    endloop
  endfacet
  facet normal 0 0 1
    outer loop
      vertex 15.95 0 4
      vertex 13.95 6.9 4
      vertex 13.95 0 4
    endloop
  endfacet
  facet normal 1 -0 0
    outer loop
      vertex 15.95 0 4
      vertex 15.95 6.9 0
      vertex 15.95 6.9 4
    endloop
  endfacet
  facet normal 1 0 0
    outer loop
      vertex 15.95 6.9 0
      vertex 15.95 0 4
      vertex 15.95 0 0
    endloop
  endfacet
  facet normal -1 0 0
    outer loop
      vertex 0 17.7 0
      vertex 0 24.6 14
      vertex 0 24.6 0
    endloop
  endfacet
  facet normal -1 -0 0
    outer loop
      vertex 0 24.6 14
      vertex 0 17.7 0
      vertex 0 17.7 14
    endloop
  endfacet
  facet normal 0 0 1
    outer loop
      vertex 13.95 24.6 14
      vertex 13.45 24.1 14
      vertex 13.95 17.7 14
    endloop
  endfacet
  facet normal 0 0 1
    outer loop
      vertex 13.95 24.6 14
      vertex 0.5 24.1 14
      vertex 13.45 24.1 14
    endloop
  endfacet
  facet normal 0 0 1
    outer loop
      vertex 0.5 24.1 14
      vertex 0 24.6 14
      vertex 0.5 18.2 14
    endloop
  endfacet
  facet normal -0 0 1
    outer loop
      vertex 0 24.6 14
      vertex 0.5 24.1 14
      vertex 13.95 24.6 14
    endloop
  endfacet
  facet normal -0 0 1
    outer loop
      vertex 13.45 18.2 14
      vertex 13.95 17.7 14
      vertex 13.45 24.1 14
    endloop
  endfacet
  facet normal -0 0 1
    outer loop
      vertex 0.5 18.2 14
      vertex 13.95 17.7 14
      vertex 13.45 18.2 14
    endloop
  endfacet
  facet normal 0 0 1
    outer loop
      vertex 0.5 18.2 14
      vertex 0 17.7 14
      vertex 13.95 17.7 14
    endloop
  endfacet
  facet normal 0 0 1
    outer loop
      vertex 0 17.7 14
      vertex 0.5 18.2 14
      vertex 0 24.6 14
    endloop
  endfacet
  facet normal 1 -0 0
    outer loop
      vertex 13.95 17.7 14
      vertex 13.95 24.6 0
      vertex 13.95 24.6 14
    endloop
  endfacet
  facet normal 1 0 0
    outer loop
      vertex 13.95 24.6 0
      vertex 13.95 17.7 14
      vertex 13.95 17.7 0
    endloop
  endfacet
  facet normal 0 0 -1
    outer loop
      vertex 8.975 15.7 0
      vertex 4.975 15.7 0
      vertex 8.975 17.7 0
    endloop
  endfacet
  facet normal 0 0 -1
    outer loop
      vertex 13.95 17.7 0
      vertex 13.45 18.2 0
      vertex 13.95 24.6 0
    endloop
  endfacet
  facet normal 0 0 -1
    outer loop
      vertex 8.975 17.7 0
      vertex 13.45 18.2 0
      vertex 13.95 17.7 0
    endloop
  endfacet
  facet normal 0 0 -1
    outer loop
      vertex 4.975 17.7 0
      vertex 8.975 17.7 0
      vertex 4.975 15.7 0
    endloop
  endfacet
  facet normal 0 0 -1
    outer loop
      vertex 4.975 17.7 0
      vertex 13.45 18.2 0
      vertex 8.975 17.7 0
    endloop
  endfacet
  facet normal 0 0 -1
    outer loop
      vertex 4.975 17.7 0
      vertex 0.5 18.2 0
      vertex 13.45 18.2 0
    endloop
  endfacet
  facet normal -0 0 -1
    outer loop
      vertex 0.5 18.2 0
      vertex 0 17.7 0
      vertex 0.5 24.1 0
    endloop
  endfacet
  facet normal 0 0 -1
    outer loop
      vertex 0 17.7 0
      vertex 0.5 18.2 0
      vertex 4.975 17.7 0
    endloop
  endfacet
  facet normal 0 0 -1
    outer loop
      vertex 13.45 24.1 0
      vertex 13.95 24.6 0
      vertex 13.45 18.2 0
    endloop
  endfacet
  facet normal 0 0 -1
    outer loop
      vertex 0.5 24.1 0
      vertex 13.95 24.6 0
      vertex 13.45 24.1 0
    endloop
  endfacet
  facet normal 0 0 -1
    outer loop
      vertex 0.5 24.1 0
      vertex 0 24.6 0
      vertex 13.95 24.6 0
    endloop
  endfacet
  facet normal 0 0 -1
    outer loop
      vertex 0 24.6 0
      vertex 0.5 24.1 0
      vertex 0 17.7 0
    endloop
  endfacet
  facet normal 0 -1 0
    outer loop
      vertex 0 17.7 14
      vertex 4.975 17.7 4
      vertex 13.95 17.7 14
    endloop
  endfacet
  facet normal 0 -1 0
    outer loop
      vertex 0 17.7 0
      vertex 4.975 17.7 4
      vertex 0 17.7 14
    endloop
  endfacet
  facet normal 0 -1 -0
    outer loop
      vertex 4.975 17.7 4
      vertex 0 17.7 0
      vertex 4.975 17.7 0
    endloop
  endfacet
  facet normal 0 -1 0
    outer loop
      vertex 8.975 17.7 4
      vertex 13.95 17.7 14
      vertex 4.975 17.7 4
    endloop
  endfacet
  facet normal 0 -1 0
    outer loop
      vertex 13.95 17.7 0
      vertex 8.975 17.7 4
      vertex 8.975 17.7 0
    endloop
  endfacet
  facet normal 0 -1 0
    outer loop
      vertex 8.975 17.7 4
      vertex 13.95 17.7 0
      vertex 13.95 17.7 14
    endloop
  endfacet
  facet normal 0 1 -0
    outer loop
      vertex 13.95 24.6 0
      vertex 0 24.6 14
      vertex 13.95 24.6 14
    endloop
  endfacet
  facet normal 0 1 0
    outer loop
      vertex 0 24.6 14
      vertex 13.95 24.6 0
      vertex 0 24.6 0
    endloop
  endfacet
  facet normal 1 -0 0
    outer loop
      vertex 0.5 18.2 14
      vertex 0.5 24.1 0
      vertex 0.5 24.1 14
    endloop
  endfacet
  facet normal 1 0 0
    outer loop
      vertex 0.5 24.1 0
      vertex 0.5 18.2 14
      vertex 0.5 18.2 0
    endloop
  endfacet
  facet normal -1 0 0
    outer loop
      vertex 13.45 18.2 0
      vertex 13.45 24.1 14
      vertex 13.45 24.1 0
    endloop
  endfacet
  facet normal -1 -0 0
    outer loop
      vertex 13.45 24.1 14
      vertex 13.45 18.2 0
      vertex 13.45 18.2 14
    endloop
  endfacet
  facet normal 0 -1 0
    outer loop
      vertex 0.5 24.1 0
      vertex 13.45 24.1 14
      vertex 0.5 24.1 14
    endloop
  endfacet
  facet normal 0 -1 -0
    outer loop
      vertex 13.45 24.1 14
      vertex 0.5 24.1 0
      vertex 13.45 24.1 0
    endloop
  endfacet
  facet normal 0 1 -0
    outer loop
      vertex 13.45 18.2 0
      vertex 0.5 18.2 14
      vertex 13.45 18.2 14
    endloop
  endfacet
  facet normal 0 1 0
    outer loop
      vertex 0.5 18.2 14
      vertex 13.45 18.2 0
      vertex 0.5 18.2 0
    endloop
  endfacet
  facet normal -1 0 0
    outer loop
      vertex 4.975 15.7 0
      vertex 4.975 17.7 4
      vertex 4.975 17.7 0
    endloop
  endfacet
  facet normal -1 -0 0
    outer loop
      vertex 4.975 17.7 4
      vertex 4.975 15.7 0
      vertex 4.975 15.7 4
    endloop
  endfacet
  facet normal -0 0 1
    outer loop
      vertex 4.975 17.7 4
      vertex 8.975 15.7 4
      vertex 8.975 17.7 4
    endloop
  endfacet
  facet normal 0 0 1
    outer loop
      vertex 8.975 15.7 4
      vertex 4.975 17.7 4
      vertex 4.975 15.7 4
    endloop
  endfacet
  facet normal 1 -0 0
    outer loop
      vertex 8.975 15.7 4
      vertex 8.975 17.7 0
      vertex 8.975 17.7 4
    endloop
  endfacet
  facet normal 1 0 0
    outer loop
      vertex 8.975 17.7 0
      vertex 8.975 15.7 4
      vertex 8.975 15.7 0
    endloop
  endfacet
  facet normal 0 -1 0
    outer loop
      vertex 4.975 15.7 0
      vertex 8.975 15.7 4
      vertex 4.975 15.7 4
    endloop
  endfacet
  facet normal 0 -1 -0
    outer loop
      vertex 8.975 15.7 4
      vertex 4.975 15.7 0
      vertex 8.975 15.7 0
    endloop
  endfacet
endsolid OpenSCAD_Model
